<svg width="25" height="24" viewBox="0 0 25 24" fill="none" xmlns="http://www.w3.org/2000/svg">
<path fill-rule="evenodd" clip-rule="evenodd" d="M19.6372 5.19485C19.3769 4.93505 18.9555 4.93505 18.6952 5.19485L15.9899 7.90013C14.917 7.32089 13.7192 7.01176 12.5 6.99948C7.7861 6.99948 4.73017 11.7747 4.60217 11.978C4.46594 12.1949 4.46594 12.4705 4.60217 12.6874C5.47513 13.9901 6.5718 15.1281 7.84143 16.0486L6.0288 17.8613C5.85139 18.0276 5.77865 18.2774 5.83903 18.513C5.89941 18.7486 6.08331 18.9327 6.31887 18.9932C6.55444 19.0538 6.80429 18.9812 6.97078 18.8039L19.6372 6.1375C19.8974 5.87717 19.8974 5.45518 19.6372 5.19485ZM9.83339 12.3327C9.83339 10.86 11.0273 9.66609 12.5 9.66609C12.9737 9.66859 13.4376 9.80094 13.8413 10.0488L10.216 13.6733C9.96864 13.2697 9.83631 12.8061 9.83339 12.3327ZM18.2099 9.45076C19.0431 10.1973 19.7783 11.0465 20.3978 11.978C20.5341 12.1949 20.5341 12.4705 20.3978 12.6874C20.2698 12.8907 17.2139 17.6659 12.5 17.6659C11.7675 17.6613 11.04 17.5437 10.3434 17.3173L18.2099 9.45076Z" fill="#888888"/>
</svg>
