<svg width="25" height="24" viewBox="0 0 25 24" fill="none" xmlns="http://www.w3.org/2000/svg">
<path fill-rule="evenodd" clip-rule="evenodd" d="M12.5 6.36328C8.86364 6.36328 5.75818 8.6251 4.5 11.8178C5.75818 15.0106 8.86364 17.2724 12.5 17.2724C16.1364 17.2724 19.2418 15.0106 20.5 11.8178C19.2418 8.6251 16.1364 6.36328 12.5 6.36328ZM12.5 15.4542C10.4927 15.4542 8.86364 13.8251 8.86364 11.8178C8.86364 9.81055 10.4927 8.18146 12.5 8.18146C14.5073 8.18146 16.1364 9.81055 16.1364 11.8178C16.1364 13.8251 14.5073 15.4542 12.5 15.4542ZM10.3182 11.8178C10.3182 10.6106 11.2927 9.63601 12.5 9.63601C13.7073 9.63601 14.6818 10.6106 14.6818 11.8178C14.6818 13.0251 13.7073 13.9996 12.5 13.9996C11.2927 13.9996 10.3182 13.0251 10.3182 11.8178Z" fill="#888888"/>
</svg>
