<svg width="32" height="32" viewBox="0 0 32 32" fill="none" xmlns="http://www.w3.org/2000/svg">
<path fill-rule="evenodd" clip-rule="evenodd" d="M16.7148 6.16823C16.4456 5.94392 16.0544 5.94392 15.7852 6.16823L5.35026 14.8612C4.65468 15.4406 5.06457 16.5724 5.97001 16.5724H7.5609L7.95296 24.4111C8.00449 25.4412 8.85498 26.25 9.8867 26.25H14.5559C14.9569 26.25 15.2819 25.925 15.2819 25.5242V19.4757C15.2819 19.2084 15.4986 18.9918 15.766 18.9918H16.734C17.0014 18.9918 17.2181 19.2084 17.2181 19.4757V25.5242C17.2181 25.925 17.5431 26.25 17.9441 26.25H22.6133C23.645 26.25 24.4955 25.4412 24.547 24.4111L24.9391 16.5724H26.53C27.4354 16.5724 27.8453 15.4406 27.1497 14.8612L16.7148 6.16823Z" fill="white"/>
</svg>
