<svg width="14" height="15" viewBox="0 0 14 15" fill="none" xmlns="http://www.w3.org/2000/svg">
<path d="M6.99957 13.7218C5.76893 13.7218 4.56593 13.3569 3.54269 12.6732C2.51945 11.9895 1.72193 11.0177 1.25098 9.88071C0.78004 8.74375 0.656819 7.49267 0.896905 6.28567C1.13699 5.07868 1.7296 3.96999 2.59979 3.09979C3.46999 2.2296 4.57868 1.63699 5.78567 1.3969C6.99267 1.15682 8.24375 1.28004 9.38071 1.75098C10.5177 2.22193 11.4895 3.01945 12.1732 4.04269C12.8569 5.06593 13.2218 6.26893 13.2218 7.49957C13.2218 9.1498 12.5662 10.7325 11.3993 11.8993C10.2325 13.0662 8.6498 13.7218 6.99957 13.7218Z" fill="#3430F5"/>
<path d="M6.9878 5.10842C7.28849 5.10842 7.53225 4.86466 7.53225 4.56398C7.53225 4.26329 7.28849 4.01953 6.9878 4.01953C6.68712 4.01953 6.44336 4.26329 6.44336 4.56398C6.44336 4.86466 6.68712 5.10842 6.9878 5.10842Z" fill="#0F0F0F"/>
<path d="M8.16753 10.2233H7.38976V5.98438H6.22309C6.11995 5.98438 6.02103 6.02535 5.9481 6.09828C5.87517 6.17121 5.8342 6.27012 5.8342 6.37326C5.8342 6.4764 5.87517 6.57532 5.9481 6.64825C6.02103 6.72118 6.11995 6.76215 6.22309 6.76215H6.61198V10.2233H5.8342C5.73106 10.2233 5.63215 10.2642 5.55922 10.3372C5.48628 10.4101 5.44531 10.509 5.44531 10.6122C5.44531 10.7153 5.48628 10.8142 5.55922 10.8871C5.63215 10.9601 5.73106 11.001 5.8342 11.001H8.16753C8.27067 11.001 8.36959 10.9601 8.44252 10.8871C8.51545 10.8142 8.55642 10.7153 8.55642 10.6122C8.55642 10.509 8.51545 10.4101 8.44252 10.3372C8.36959 10.2642 8.27067 10.2233 8.16753 10.2233Z" fill="#0F0F0F"/>
</svg>
