<svg width="14" height="15" viewBox="0 0 14 15" fill="none" xmlns="http://www.w3.org/2000/svg">
<path d="M6.99957 13.7218C5.76893 13.7218 4.56593 13.3569 3.54269 12.6732C2.51945 11.9895 1.72193 11.0177 1.25098 9.88071C0.78004 8.74375 0.656819 7.49267 0.896905 6.28567C1.13699 5.07868 1.7296 3.96999 2.59979 3.09979C3.46999 2.2296 4.57868 1.63699 5.78567 1.3969C6.99267 1.15682 8.24375 1.28004 9.38071 1.75098C10.5177 2.22193 11.4895 3.01945 12.1732 4.04269C12.8569 5.06593 13.2218 6.26893 13.2218 7.49957C13.2218 9.1498 12.5662 10.7325 11.3993 11.8993C10.2325 13.0662 8.6498 13.7218 6.99957 13.7218Z" fill="#00C48C"/>
<path d="M9.79498 5.68306C10.0706 5.43898 10.5176 5.43898 10.7933 5.68306C11.0689 5.92714 11.0689 6.32286 10.7933 6.56694L6.55796 10.3169C6.28229 10.561 5.83535 10.561 5.55969 10.3169L3.20675 8.23361C2.93108 7.98953 2.93108 7.5938 3.20675 7.34972C3.48241 7.10565 3.92935 7.10565 4.20502 7.34972L6.05882 8.99112L9.79498 5.68306Z" fill="#1A051D"/>
</svg>
